# xmcd
# 
# Track frame offsets:
#     150
#     16855
#     40930
#     66767
#     94045
#     117512
#     138565
# 
# Disc length: 2173
# 
# Revision: 0
# Processed by: cddbd v1.5.2PL0 Copyright (c) Steve Scherf et al.
# Submitted via: fre:ac v1.0.17
# 
DISCID=5a087b07
DTITLE=Hardkandy - Advice
DYEAR=2006
DGENRE=
TTITLE0=Radio Edit
TTITLE1=Manasseh Remix
TTITLE2=Hardkandy Rerub
TTITLE3=Nu:Tone Remix
TTITLE4=BlackGrass Remix
TTITLE5=Jack of Clubs (Live)
TTITLE6=Manasseh Dubmix
EXTD=
EXTT0=
EXTT1=
EXTT2=
EXTT3=
EXTT4=
EXTT5=
EXTT6=
PLAYORDER=
